<?xml version="1.0" standalone="no"?><!DOCTYPE svg PUBLIC "-//W3C//DTD SVG 1.1//EN" "http://www.w3.org/Graphics/SVG/1.1/DTD/svg11.dtd"><svg class="icon" width="128px" height="128.00px" viewBox="0 0 1024 1024" version="1.1" xmlns="http://www.w3.org/2000/svg"><path fill="#FC4967" d="M914.88 424.576l-93.824 0C814.144 400.128 804.48 376.96 792.32 355.264l66.432-66.368c17.536-17.6 17.536-46.208 0-63.808l-59.904-59.776c-17.6-17.664-46.144-17.664-63.808 0L668.736 231.68C647.04 219.52 623.744 209.792 599.36 202.944L599.36 109.12C599.36 84.16 579.2 64 554.304 64L469.696 64C444.8 64 424.64 84.16 424.64 109.12l0 93.824C400.256 209.792 376.96 219.52 355.264 231.68L288.96 165.312c-17.664-17.664-46.208-17.664-63.808 0L165.312 225.088c-17.6 17.6-17.6 46.208 0 63.808L231.68 355.264C219.52 376.96 209.856 400.128 202.944 424.576L109.12 424.576C84.224 424.576 64 444.8 64 469.696L64 554.24c0 24.896 20.224 45.12 45.12 45.12l93.824 0C209.856 623.744 219.52 647.04 231.68 668.736l-66.368 66.304c-17.6 17.6-17.6 46.208 0 63.808l59.84 59.84c17.6 17.6 46.144 17.6 63.808 0l66.304-66.368c21.696 12.096 44.992 21.824 69.376 28.736l0 93.824C424.64 939.776 444.8 960 469.696 960l84.608 0c24.896 0 45.056-20.224 45.056-45.12l0-93.824c24.384-6.912 47.68-16.64 69.376-28.736l66.304 66.368c17.664 17.6 46.208 17.6 63.808 0l59.904-59.84c17.536-17.6 17.536-46.208 0-63.808l-66.432-66.304c12.16-21.76 21.824-44.992 28.736-69.376l93.824 0C939.776 599.36 960 579.136 960 554.24L960 469.696C960 444.8 939.776 424.576 914.88 424.576zM512 696.96c-102.144 0-184.96-82.816-184.96-184.96 0-102.144 82.816-184.96 184.96-184.96S696.96 409.856 696.96 512C696.96 614.144 614.144 696.96 512 696.96zM512 512m-88.512 0a1.383 1.383 0 1 0 177.024 0 1.383 1.383 0 1 0-177.024 0Z" /></svg>